<svg width="63" height="40" viewBox="0 0 63 40" fill="none" xmlns="http://www.w3.org/2000/svg">
<path d="M13.49 0.729997C18.55 0.729997 22.235 1.83 24.545 4.03C26.8917 6.19333 28.065 9.18167 28.065 12.995C28.065 14.7183 27.8083 16.3683 27.295 17.945C26.7817 19.485 25.92 20.8783 24.71 22.125C23.5367 23.335 21.9783 24.2883 20.035 24.985C18.0917 25.6817 15.69 26.03 12.83 26.03H9.255V40H0.95V0.729997H13.49ZM13.05 7.55H9.255V19.21H12.005C13.5817 19.21 14.9383 19.0083 16.075 18.605C17.2117 18.2017 18.0917 17.56 18.715 16.68C19.3383 15.8 19.65 14.6633 19.65 13.27C19.65 11.3267 19.1183 9.89667 18.055 8.98C16.9917 8.02667 15.3233 7.55 13.05 7.55Z" fill="white"/>
<path d="M48.6861 24.93L39.5011 40H30.2611L41.4261 22.73C40.3628 22.29 39.2995 21.6483 38.2361 20.805C37.1728 19.925 36.2928 18.77 35.5961 17.34C34.8995 15.8733 34.5511 14.0767 34.5511 11.95C34.5511 8.32 35.8528 5.55167 38.4561 3.645C41.0595 1.70166 44.7078 0.729997 49.4011 0.729997H62.1611V40H53.8561V24.93H48.6861ZM49.7311 7.55C48.3011 7.55 47.0728 7.715 46.0461 8.045C45.0561 8.375 44.2861 8.90666 43.7361 9.64C43.2228 10.3733 42.9661 11.345 42.9661 12.555C42.9661 14.2783 43.5345 15.6533 44.6711 16.68C45.8445 17.67 47.6045 18.165 49.9511 18.165H53.8561V7.55H49.7311Z" fill="#F30085"/>
</svg>
